#!OML:ASF H:\Male1\Project 1\Capture day 1\Session 1\Male1.ASF
:FULLY-SPECIFIED
:DEGREES
848
root 27.3532 14.0857 9.36833 -1232.05 -61.1222 -205.518
lowerback 17.3986 2.77231 -9.29153
upperback 6.75767 1.08112 -5.55773
thorax -2.56544 0.143176 -0.864687
lowerneck -2.30405 -6.46743 -1.67167
upperneck -8.81973 -8.53275 5.92927
head -2.05041 -4.46268 2.24748
rclavicle -2.26615e-014 -1.55052e-014
rhumerus -50.8126 22.7826 -100.96
rradius 112.984
rwrist -16.8427
rhand -28.3989 24.9117
rfingers 7.12502
rthumb -1.77119 -5.06064
lclavicle -2.26615e-014 -1.55052e-014
lhumerus -60.0547 9.04275 64.2127
lradius 100.217
lwrist 11.5625
lhand -25.0179 -3.16379
lfingers 7.12502
lthumb 1.49425 26.8107
rfemur -20.6953 3.8981 27.2907
rtibia 84.4419
rfoot -9.1666 -5.64003
rtoes -36.2045
lfemur -16.4214 -7.52856 -19.9485
ltibia 41.2516
lfoot -26.5325 10.5243
ltoes -28.8559
849
root 26.964 14.0485 9.19361 -1232.35 -60.004 -205.415
lowerback 17.6399 2.68186 -9.86309
upperback 6.72959 0.81777 -5.47309
thorax -2.7141 0.00367477 -0.412263
lowerneck -1.95369 -6.17721 -1.18108
upperneck -9.27793 -8.19241 5.1081
head -2.33001 -4.29941 1.93547
rclavicle 4.8901e-014 -2.82274e-014
rhumerus -52.2914 21.188 -100.985
rradius 114.003
rwrist -14.2997
rhand -28.1687 25.483
rfingers 7.12502
rthumb -1.54883 -4.49114
lclavicle 4.8901e-014 -2.82274e-014
lhumerus -56.0755 8.37959 64.04
lradius 101.041
lwrist 10.8953
lhand -24.9744 -5.68869
lfingers 7.12502
lthumb 1.53632 24.2855
rfemur -25.8213 2.40917 25.4154
rtibia 89.1571
rfoot -10.5629 -7.87835
rtoes -36.5526
lfemur -13.2087 -6.12196 -20.6399
ltibia 39.5722
lfoot -27.3792 9.93924
ltoes -28.835
850
root 26.5697 14.0487 8.99187 -1232.84 -59.2526 -205.062
lowerback 17.7607 2.434 -10.1228
upperback 6.77193 0.441682 -5.26832
thorax -2.70961 -0.189965 0.0243567
lowerneck -1.65915 -5.86495 -0.673028
upperneck -9.59393 -7.83891 4.1067
head -2.5585 -4.11892 1.55425
rclavicle -6.08281e-014 -2.70347e-014
rhumerus -53.5394 20.0457 -100.749
rradius 114.94
rwrist -12.7366
rhand -27.6851 25.7622
rfingers 7.12502
rthumb -1.08182 -4.21484
lclavicle -6.08281e-014 -2.70347e-014
lhumerus -52.2404 7.89785 64.0071
lradius 102.468
lwrist 10.4458
lhand -24.7659 -7.97121
lfingers 7.12502
lthumb 1.73765 22.0015
rfemur -30.6966 0.933977 23.9155
rtibia 92.3048
rfoot -11.9402 -10.1265
rtoes -36.1733
lfemur -9.67716 -5.34715 -21.0029
ltibia 37.2065
lfoot -27.5667 9.70148
ltoes -28.9325
851
root 26.1675 14.0846 8.76372 -1233.57 -58.7157 -204.432
lowerback 17.7418 2.04923 -10.0628
upperback 6.87412 -0.0244945 -5.01998
thorax -2.55622 -0.428907 0.351269
lowerneck -1.4792 -5.48567 -0.148806
upperneck -9.74917 -7.40983 2.97447
head -2.71656 -3.89219 1.1164
rclavicle 4.77083e-015 2.5842e-014
rhumerus -54.5348 19.4146 -100.439
rradius 115.66
rwrist -12.3423
rhand -26.9841 25.7601
rfingers 7.12502
rthumb -0.404685 -4.21923
lclavicle 4.77083e-015 2.5842e-014
lhumerus -48.7142 7.59984 64.0412
lradius 104.524
lwrist 10.1763
lhand -24.451 -9.14586
lfingers 7.12502
lthumb 2.04178 20.8241
rfemur -35.1333 -0.26439 22.7339
rtibia 93.7989
rfoot -13.319 -12.0778
rtoes -35.0041
lfemur -5.76149 -5.36847 -21.1956
ltibia 34.1641
lfoot -26.9549 9.95524
ltoes -29.0377
852
root 25.7562 14.1529 8.50933 -1234.58 -58.2082 -203.489
lowerback 17.6269 1.60417 -9.80306
upperback 7.01559 -0.514797 -4.7272
thorax -2.30742 -0.68132 0.61684
lowerneck -1.46387 -5.01335 0.320648
upperneck -9.77659 -6.86802 1.76911
head -2.79851 -3.60317 0.651
rclavicle -6.95746e-015 7.97127e-014
rhumerus -55.3258 19.2651 -100.117
rradius 116.073
rwrist -13.035
rhand -26.2311 25.4633
rfingers 7.12502
rthumb 0.322549 -4.51618
lclavicle -6.95746e-015 7.97127e-014
lhumerus -45.6698 7.46524 64.1942
lradius 107.186
lwrist 9.96548
lhand -23.9934 -8.98439
lfingers 7.12502
lthumb 2.48374 20.9809
rfemur -38.9503 -0.93549 21.7802
rtibia 93.6325
rfoot -14.6862 -13.5189
rtoes -33.157
lfemur -1.49175 -6.13192 -21.3965
ltibia 30.5648
lfoot -25.3512 10.826
ltoes -28.9801
853
root 25.3363 14.2529 8.22542 -1235.92 -57.6237 -202.142
lowerback 17.4385 1.17424 -9.41631
upperback 7.16922 -0.950733 -4.37316
thorax -2.01196 -0.906634 0.860767
lowerneck -1.66462 -4.47319 0.704219
upperneck -9.69733 -6.24192 0.575553
head -2.79457 -3.27111 0.19114
rclavicle -4.48259e-014 -3.45885e-014
rhumerus -55.9662 19.4262 -99.7999
rradius 116.109
rwrist -14.5361
rhand -25.6557 25.1073
rfingers 7.12502
rthumb 0.878247 -4.87068
lclavicle -4.48259e-014 -3.45885e-014
lhumerus -43.1238 7.36492 64.5455
lradius 110.287
lwrist 9.67833
lhand -23.5712 -7.55957
lfingers 7.12502
lthumb 2.89149 22.4006
rfemur -42.0305 -0.938958 21.0449
rtibia 91.8233
rfoot -16.0047 -14.5621
rtoes -31.3206
lfemur 2.99143 -7.40896 -21.6308
ltibia 26.5688
lfoot -22.5637 12.2059
ltoes -28.6672
854
root 24.9078 14.3797 7.91052 -1237.5 -56.8763 -200.424
lowerback 17.1638 0.823787 -8.96594
upperback 7.31273 -1.26256 -3.96963
thorax -1.69254 -1.0694 1.09189
lowerneck -2.05837 -3.92203 1.02253
upperneck -9.57512 -5.60549 -0.573286
head -2.72938 -2.93804 -0.24962
rclavicle 5.70512e-014 5.02925e-014
rhumerus -56.4996 19.6828 -99.4796
rradius 115.716
rwrist -16.5187
rhand -25.419 24.8729
rfingers 7.12502
rthumb 1.10691 -5.10396
lclavicle 5.70512e-014 5.02925e-014
lhumerus -41.1068 7.13418 65.1428
lradius 113.649
lwrist 9.21827
lhand -23.239 -6.04679
lfingers 7.12502
lthumb 3.21226 23.9088
rfemur -44.2975 -0.265937 20.462
rtibia 88.4799
rfoot -17.2845 -15.2999
rtoes -29.4851
lfemur 7.46886 -8.85587 -21.8843
ltibia 22.4493
lfoot -18.6448 13.7264
ltoes -27.7119
855
root 24.4724 14.5257 7.56545 -1239.32 -55.9964 -198.341
lowerback 16.8436 0.570234 -8.4452
upperback 7.44258 -1.43447 -3.50913
thorax -1.37603 -1.16029 1.31336
lowerneck -2.60671 -3.38533 1.27951
upperneck -9.44962 -4.9847 -1.58748
head -2.62184 -2.62086 -0.639055
rclavicle -3.79679e-014 -4.6118e-014
rhumerus -56.9204 19.8907 -99.1265
rradius 114.86
rwrist -18.7009
rhand -25.4972 24.6825
rfingers 7.12502
rthumb 1.03138 -5.29479
lclavicle -3.79679e-014 -4.6118e-014
lhumerus -39.6486 6.62582 66.0328
lradius 117.062
lwrist 8.53302
lhand -23.0084 -4.44378
lfingers 7.12502
lthumb 3.43499 25.5083
rfemur -45.6806 0.967241 20.048
rtibia 83.7822
rfoot -18.5008 -15.9187
rtoes -27.985
lfemur 11.6213 -10.1501 -21.9927
ltibia 18.7164
lfoot -13.7906 15.0173
ltoes -25.5502
856
root 24.0328 14.6767 7.19542 -1241.11 -55.0094 -196.179
lowerback 16.4579 0.419247 -7.94541
upperback 7.57446 -1.47744 -3.0375
thorax -1.03249 -1.18871 1.53077
lowerneck -3.20787 -2.89414 1.49528
upperneck -9.4162 -4.41685 -2.38931
head -2.523 -2.34017 -0.95117
rclavicle -2.61402e-014 -8.28932e-014
rhumerus -57.1674 19.9512 -98.7086
rradius 113.552
rwrist -20.8263
rhand -25.7954 24.4408
rfingers 7.12502
rthumb 0.743397 -5.53762
lclavicle -2.61402e-014 -8.28932e-014
lhumerus -38.7587 5.73761 67.2458
lradius 120.226
lwrist 7.81204
lhand -22.857 -2.90189
lfingers 7.12502
lthumb 3.58118 27.0478
rfemur -46.2511 2.56315 19.6619
rtibia 78.087
rfoot -19.6391 -16.4656
rtoes -26.8475
lfemur 14.898 -11.1145 -21.9545
ltibia 16.3198
lfoot -8.70045 15.8224
ltoes -22.4481
857
root 23.5919 14.8161 6.80767 -1242.94 -53.9989 -193.965
lowerback 16.1271 0.338441 -7.37031
upperback 7.70433 -1.43701 -2.59044
thorax -0.730238 -1.17273 1.66539
lowerneck -3.80102 -2.46253 1.73694
upperneck -9.43404 -3.92001 -3.01657
head -2.43553 -2.10277 -1.2089
rclavicle -2.62396e-014 2.32578e-014
rhumerus -57.2385 19.8506 -98.2814
rradius 111.865
rwrist -22.6706
rhand -26.2001 24.0687
rfingers 7.12502
rthumb 0.352451 -5.91077
lclavicle -2.62396e-014 2.32578e-014
lhumerus -38.4991 4.46394 68.6997
lradius 122.79
lwrist 7.2664
lhand -22.7539 -1.6459
lfingers 7.12502
lthumb 3.68072 28.3021
rfemur -46.0277 4.3754 19.3518
rtibia 71.8124
rfoot -20.5886 -16.9259
rtoes -26.5058
lfemur 16.6867 -11.6268 -21.6344
ltibia 16.5505
lfoot -4.46851 15.8232
ltoes -18.6241
858
root 23.1533 14.925 6.41152 -1244.71 -53.0018 -191.918
lowerback 15.9053 0.32173 -6.82324
upperback 7.83034 -1.34151 -2.17096
thorax -0.493497 -1.12871 1.77903
lowerneck -4.30159 -2.10469 1.98072
upperneck -9.48864 -3.51407 -3.5249
head -2.37269 -1.91349 -1.42554
rclavicle -7.03698e-014 -1.98785e-014
rhumerus -57.1216 19.6584 -97.8042
rradius 109.942
rwrist -24.11
rhand -26.6252 23.5353
rfingers 7.12502
rthumb -0.0581211 -6.44446
lclavicle -7.03698e-014 -1.98785e-014
lhumerus -38.8657 2.92689 70.397
lradius 124.412
lwrist 7.01965
lhand -22.7073 -0.71938
lfingers 7.12502
lthumb 3.72579 29.2278
rfemur -45.1429 6.24763 19.0426
rtibia 65.5076
rfoot -21.1809 -17.1768
rtoes -27.0426
lfemur 16.8322 -11.8182 -21.1769
ltibia 19.8609
lfoot -1.83808 15.0572
ltoes -14.4935
859
root 22.7183 14.992 6.01335 -1246.33 -52.0403 -190.172
lowerback 15.7974 0.345752 -6.28355
upperback 7.94306 -1.21783 -1.84456
thorax -0.334727 -1.06814 1.79666
lowerneck -4.68343 -1.82545 2.24816
upperneck -9.50093 -3.19934 -3.94104
head -2.31537 -1.76935 -1.61424
rclavicle -4.63168e-014 5.32743e-014
rhumerus -56.8158 19.4159 -97.3642
rradius 107.952
rwrist -25.1011
rhand -27.0523 22.9561
rfingers 7.12502
rthumb -0.470641 -7.02317
lclavicle -4.63168e-014 5.32743e-014
lhumerus -39.776 1.33771 72.1389
lradius 124.803
lwrist 7.06295
lhand -22.7559 -0.0848741
lfingers 7.12502
lthumb 3.67886 29.8631
rfemur -43.7358 8.03124 18.7344
rtibia 59.7064
rfoot -21.246 -17.1397
rtoes -28.246
lfemur 15.831 -11.7436 -20.6949
ltibia 25.4024
lfoot -0.730185 13.7131
ltoes -11.4109
860
root 22.2875 15.0118 5.61766 -1247.86 -51.1124 -188.697
lowerback 15.8046 0.40773 -5.75086
upperback 8.02044 -1.06222 -1.58756
thorax -0.276696 -0.987227 1.74294
lowerneck -4.95051 -1.61966 2.49285
upperneck -9.39326 -2.96351 -4.31112
head -2.23796 -1.6598 -1.78239
rclavicle -9.45221e-014 5.86415e-014
rhumerus -56.3255 19.2308 -96.9634
rradius 106.092
rwrist -25.631
rhand -27.5264 22.3035
rfingers 7.12502
rthumb -0.928529 -7.67426
lclavicle -9.45221e-014 5.86415e-014
lhumerus -41.1458 -0.0282279 73.7904
lradius 123.813
lwrist 7.24653
lhand -22.9166 0.431252
lfingers 7.12502
lthumb 3.52365 30.3819
rfemur -41.9159 9.44952 18.6505
rtibia 54.9115
rfoot -20.636 -17.078
rtoes -30.4514
lfemur 14.1819 -11.4048 -20.1917
ltibia 32.1883
lfoot -0.864766 12.2163
ltoes -9.29481
861
root 21.8611 14.9907 5.22537 -1249.37 -50.2075 -187.366
lowerback 15.8997 0.509385 -5.20059
upperback 8.04079 -0.857775 -1.34503
thorax -0.327403 -0.875814 1.65843
lowerneck -5.11953 -1.47718 2.6597
upperneck -9.1232 -2.78999 -4.67558
head -2.12381 -1.57366 -1.93369
rclavicle -2.41523e-014 1.68967e-014
rhumerus -55.6381 19.2158 -96.5893
rradius 104.503
rwrist -25.7584
rhand -28.0238 21.6942
rfingers 7.12502
rthumb -1.40891 -8.28086
lclavicle -2.41523e-014 1.68967e-014
lhumerus -42.8346 -0.963185 75.2389
lradius 121.433
lwrist 7.43586
lhand -23.0705 0.538603
lfingers 7.12502
lthumb 3.37501 30.4916
rfemur -39.7998 10.2619 19.0523
rtibia 51.5009
rfoot -19.9787 -16.8247
rtoes -32.2757
lfemur 12.139 -10.8284 -19.5938
ltibia 39.6096
lfoot -1.77034 10.9463
ltoes -8.17469
862
root 21.4367 14.9395 4.83518 -1250.88 -49.2756 -186.095
lowerback 16.0118 0.655914 -4.59532
upperback 7.99432 -0.581679 -1.10636
thorax -0.460412 -0.721554 1.52756
lowerneck -5.2118 -1.38298 2.73201
upperneck -8.71236 -2.6609 -5.0479
head -1.97665 -1.50291 -2.06979
rclavicle 6.01821e-014 6.45056e-014
rhumerus -54.6985 19.4334 -96.2611
rradius 103.277
rwrist -25.5516
rhand -28.6102 21.0885
rfingers 7.12502
rthumb -1.97522 -8.88208
lclavicle 6.01821e-014 6.45056e-014
lhumerus -44.7224 -1.3987 76.3956
lradius 117.803
lwrist 7.57859
lhand -23.2128 0.319805
lfingers 7.12502
lthumb 3.23757 30.275
rfemur -37.5241 10.4025 20.0191
rtibia 49.5489
rfoot -19.501 -16.2753
rtoes -33.201
lfemur 9.77554 -10.0704 -18.8613
ltibia 47.2604
lfoot -3.10556 10.1716
ltoes -7.41456
